<?xml version="1.0" encoding="UTF-8"?>
<svg id="Layer_1" xmlns="http://www.w3.org/2000/svg" version="1.1" xmlns:xlink="http://www.w3.org/1999/xlink" viewBox="0 0 20 20">
  <!-- Generator: Adobe Illustrator 29.8.2, SVG Export Plug-In . SVG Version: 2.1.1 Build 3)  -->
  <defs>
    <style>
      .st0 {
        fill: url(#linear-gradient2);
      }

      .st1 {
        fill: url(#linear-gradient1);
      }

      .st2 {
        fill: #efefef;
      }

      .st3 {
        fill: url(#linear-gradient3);
      }

      .st4 {
        fill: url(#linear-gradient);
      }
    </style>
    <linearGradient id="linear-gradient" x1="-13.7" y1="1347.8" x2="79.4" y2="1310.6" gradientTransform="translate(0 -1328.7)" gradientUnits="userSpaceOnUse">
      <stop offset="0" stop-color="#003299"/>
      <stop offset="1" stop-color="#001e5c"/>
    </linearGradient>
    <linearGradient id="linear-gradient1" x1=".5" y1="5" x2="22.2" y2="28.3" gradientTransform="translate(0 22) scale(1 -1)" gradientUnits="userSpaceOnUse">
      <stop offset="0" stop-color="#003299"/>
      <stop offset="1" stop-color="#001e5c"/>
    </linearGradient>
    <linearGradient id="linear-gradient2" x1="1.2" y1="4.4" x2="22.8" y2="27.8" gradientTransform="translate(0 22) scale(1 -1)" gradientUnits="userSpaceOnUse">
      <stop offset="0" stop-color="#003299"/>
      <stop offset="1" stop-color="#001e5c"/>
    </linearGradient>
    <linearGradient id="linear-gradient3" x1="3.2" y1="2.5" x2="24.9" y2="25.8" gradientTransform="translate(0 22) scale(1 -1)" gradientUnits="userSpaceOnUse">
      <stop offset="0" stop-color="#003299"/>
      <stop offset="1" stop-color="#001e5c"/>
    </linearGradient>
  </defs>
  <polygon class="st4" points="11.9 13.2 11.9 3.8 18.4 3.8 18.4 5.4 13.7 5.4 13.7 7.4 17.5 7.4 17.5 9.1 13.7 9.1 13.7 13.2 11.9 13.2"/>
  <path class="st2" d="M4.4,19.4"/>
  <g>
    <path class="st1" d="M3.1,8c0,6.2,5.1,7.7,7.3,7.7,0,0-3.9-1.2-5.1-5.5-.4-1.5-.4-3.1,0-4.5s1.4-3.9,3.6-5.2c0,0-5.8,1.3-5.8,7.5Z"/>
    <path class="st0" d="M17.8,2s-4.8-4-9.6.8-.9,10.4,2.7,11.5c-1.8-1.6-2.7-3.6-2.6-5.9s1.4-4.8,3.6-5.9,3.3-1.2,5.9-.5Z"/>
    <path class="st3" d="M1.9,10.4c-.6,1.5-1,3.7-.2,5.4,1.4,2.7,3.9,3.7,7.5,3.5h0c3-.3,5.7-2.1,7.2-3.5s2.5-3.5,2.5-3.6c-4.3,5.7-11.8,4.2-12.1,4.2,0,0-4.4-.5-4.9-6Z"/>
  </g>
</svg>