<?xml version="1.0" encoding="UTF-8"?>
<svg id="Layer_1" xmlns="http://www.w3.org/2000/svg" version="1.1" xmlns:xlink="http://www.w3.org/1999/xlink" viewBox="0 0 20 20">
  <!-- Generator: Adobe Illustrator 29.2.1, SVG Export Plug-In . SVG Version: 2.1.0 Build 116)  -->
  <defs>
    <style>
      .st0 {
        fill: url(#linear-gradient2);
      }

      .st1 {
        fill: url(#linear-gradient1);
      }

      .st2 {
        fill: url(#linear-gradient3);
      }

      .st3 {
        fill: url(#linear-gradient);
      }
    </style>
    <linearGradient id="linear-gradient" x1=".4" y1="16.6" x2="19.1" y2="-.5" gradientUnits="userSpaceOnUse">
      <stop offset="0" stop-color="#003299"/>
      <stop offset="1" stop-color="#001e5c"/>
    </linearGradient>
    <linearGradient id="linear-gradient1" x1=".9" y1="17.2" x2="19.6" y2="0" xlink:href="#linear-gradient"/>
    <linearGradient id="linear-gradient2" x1="2.5" y1="18.9" x2="21.2" y2="1.8" xlink:href="#linear-gradient"/>
    <linearGradient id="linear-gradient3" x1="2" y1="18.4" x2="20.7" y2="1.3" xlink:href="#linear-gradient"/>
  </defs>
  <g>
    <path class="st3" d="M9.5,1.2s-5.5,1.1-5.5,7,4.8,7.2,6.8,7.2c0,0-3.7-1.1-4.8-5.1-.4-1.4-.4-2.9,0-4.3s1.4-3.7,3.4-4.8Z"/>
    <path class="st1" d="M9.9,5.1s2.5-4.2,7.9-2.6c0,0-4.4-3.7-8.9.9s-1,9.7,2.4,10.7c-2.6-2.3-3.3-5.7-1.4-9Z"/>
    <path class="st0" d="M16,13.3s0,0,0,0c-.3,1-.8,1.9-1.3,2.6h0c-1.8,2.3-4.5,2.8-6,2.9-.6,0-1,0-1,0-2.3-.2-4.2-1.4-5-3.3-.7-1.6-.4-3.8.2-5.1.5,5.2,4.7,5.7,4.7,5.7,0,0,5.7,1.6,8.6-2.8Z"/>
  </g>
  <polygon class="st2" points="11.7 12.9 11.7 4.7 17.3 4.7 17.3 6.1 13.2 6.1 13.2 7.8 16.6 7.8 16.6 9.3 13.2 9.3 13.2 12.9 11.7 12.9"/>
</svg>