<?xml version="1.0" encoding="UTF-8"?>
<svg id="Layer_2" data-name="Layer 2" xmlns="http://www.w3.org/2000/svg" viewBox="0 0 2906 1197.2">
  <defs>
    <style>
      .cls-1 {
        fill: #03f6c6;
      }

      .cls-2 {
        fill: #fff;
      }
    </style>
  </defs>
  <g id="Layer_1-2" data-name="Layer 1">
    <g>
      <g>
        <path class="cls-1" d="M687.52,413.34v-206.36h93.8c11.19,0,21.6,1.86,30.91,5.52,9.35,3.69,17.48,8.94,24.15,15.61,6.67,6.68,11.92,14.81,15.61,24.15,3.66,9.31,5.52,19.71,5.52,30.91s-1.85,22.25-5.51,31.75c-3.69,9.54-8.93,17.81-15.6,24.57-6.68,6.78-14.82,12.09-24.17,15.77-9.29,3.66-19.69,5.52-30.91,5.52h-50.81v52.56h-42.99ZM778.19,320.62c11.19,0,19.85-3.22,26.47-9.84,6.62-6.62,9.84-15.28,9.84-26.47s-3.22-20.48-9.86-27.2c-6.62-6.71-15.28-9.97-26.46-9.97h-47.68v73.48h47.68Z"/>
        <path class="cls-1" d="M985.91,417.31c-15.94,0-30.46-2.58-43.15-7.65-12.75-5.1-23.81-12.47-32.85-21.91-9.03-9.43-16.05-20.86-20.84-33.98-4.77-13.03-7.19-27.7-7.19-43.61s2.42-30.58,7.19-43.62c4.8-13.12,11.81-24.51,20.85-33.85,9.05-9.34,20.09-16.66,32.83-21.75,12.7-5.08,27.22-7.66,43.15-7.66s30.49,2.58,43.28,7.65c12.83,5.1,23.93,12.41,32.99,21.75,9.03,9.34,16.05,20.72,20.86,33.85,4.77,13.07,7.19,27.74,7.19,43.62s-2.42,30.56-7.19,43.61c-4.8,13.12-11.82,24.55-20.84,33.98-9.05,9.44-20.15,16.81-33,21.91-12.78,5.07-27.34,7.65-43.28,7.65ZM985.91,243.44c-9.68,0-18.42,1.58-25.99,4.69-7.5,3.09-13.88,7.5-18.97,13.11-5.12,5.65-9.11,12.66-11.87,20.84-2.79,8.29-4.21,17.73-4.21,28.07s1.42,19.84,4.21,28.22c2.75,8.28,6.75,15.33,11.87,20.97,5.09,5.62,11.47,10.04,18.97,13.12,7.54,3.11,16.29,4.68,25.99,4.68s18.44-1.57,25.99-4.68c7.5-3.09,13.94-7.51,19.13-13.14,5.19-5.63,9.23-12.68,11.99-20.95,2.8-8.39,4.21-17.89,4.21-28.22s-1.41-19.77-4.2-28.07c-2.76-8.17-6.8-15.18-12-20.82-5.19-5.62-11.62-10.04-19.13-13.13-7.56-3.11-16.31-4.69-25.99-4.69Z"/>
        <path class="cls-1" d="M1237.92,413.34l-37.22-56.82h-43.1v56.82h-43v-206.36h96.07c11.02,0,21.19,1.81,30.21,5.38,9.07,3.59,16.92,8.76,23.33,15.37,6.38,6.58,11.42,14.6,15,23.83,3.57,9.2,5.38,19.55,5.38,30.76,0,16.16-3.73,30.35-11.08,42.18-6.61,10.63-15.65,18.76-26.91,24.23l42.3,64.62h-50.99ZM1207.27,316.36c10.62,0,18.81-3.03,25.05-9.27,6.24-6.24,9.27-14.62,9.27-25.62s-3.03-18.81-9.27-25.05c-6.24-6.24-14.43-9.28-25.05-9.28h-49.66v69.23h49.66Z"/>
      </g>
      <g>
        <path class="cls-2" d="M1076.53,803.29l-25.55-81.5h-98.14l-25.55,81.5h-64.25l107.84-314.5h62.08l107.82,314.5h-64.25ZM1032.75,665l-31.06-98.62-31.06,98.62h62.13Z"/>
        <polygon class="cls-2" points="1394.2 803.29 1394.2 627.89 1329.12 798.66 1330.28 803.29 1267.37 803.29 1268.52 798.66 1203.42 627.89 1203.42 803.29 1142.23 803.29 1142.23 488.79 1211.27 488.79 1299.03 718.06 1386.35 488.79 1455.4 488.79 1455.4 803.29 1394.2 803.29"/>
        <path class="cls-2" d="M1676.94,803.29l-25.55-81.5h-98.13l-25.55,81.5h-64.25l107.82-314.5h62.09l107.83,314.5h-64.26ZM1633.17,665l-31.06-98.62-31.06,98.62h62.13Z"/>
        <polygon class="cls-2" points="1742.65 803.29 1742.65 488.79 1803.84 488.79 1803.84 746.5 1952.73 746.5 1952.73 803.29 1742.65 803.29"/>
        <rect class="cls-2" x="1966.43" y="488.79" width="61.2" height="314.5"/>
        <path class="cls-2" d="M2202.08,809.02c-24.37,0-46.54-3.93-65.9-11.68-19.4-7.75-36.21-18.88-49.96-33.09-13.74-14.18-24.41-31.51-31.74-51.52-7.28-19.9-10.98-42.35-10.98-66.7s3.7-46.77,10.98-66.68c7.32-20,18-37.33,31.74-51.52,13.75-14.19,30.56-25.33,49.96-33.09,19.36-7.75,41.53-11.68,65.9-11.68,27.93,0,52.75,5.07,73.77,15.06,21.03,9.99,38.96,24.13,53.29,42.03l2.06,2.58-49.98,34.3-1.78-2.18c-9.07-11.05-20.06-19.74-32.66-25.83-12.59-6.08-27.63-9.16-44.7-9.16-15.38,0-29.29,2.51-41.35,7.47-12.01,4.94-22.23,12.02-30.39,21.03-8.19,9.03-14.57,20.23-18.97,33.28-4.43,13.13-6.66,28.07-6.66,44.39s2.24,31.27,6.66,44.4c4.41,13.06,10.79,24.26,18.97,33.27,8.16,9.02,18.39,16.1,30.39,21.03,12.04,4.96,25.95,7.48,41.35,7.48,17.08,0,32.12-3.08,44.7-9.17,12.6-6.08,23.58-14.78,32.66-25.83l1.78-2.18,49.98,34.29-2.06,2.58c-14.33,17.91-32.25,32.06-53.29,42.04-21.02,9.99-45.85,15.06-73.77,15.06Z"/>
        <path class="cls-2" d="M2538.14,803.29l-25.55-81.5h-98.14l-25.55,81.5h-64.25l107.82-314.5h62.09l107.83,314.5h-64.26ZM2494.37,665l-31.06-98.62-31.06,98.62h62.12ZM2490.18,477.31c-6.65,0-12.63-1.38-17.74-4.1-4.73-2.51-9.42-5.31-13.91-8.31-4.38-2.91-8.7-5.62-12.84-8.05-3.77-2.21-8.06-3.32-12.76-3.32-6.36,0-14.97,1.85-16.33,17.89l-.24,2.81h-20.73l-.12-2.94c-.31-7.5.23-14.92,1.59-22.06,1.36-7.17,3.7-13.7,6.95-19.44,3.31-5.82,7.7-10.62,13.06-14.25,5.49-3.71,12.15-5.59,19.78-5.59,6.63,0,12.59,1.38,17.74,4.1,4.77,2.54,9.37,5.25,13.68,8.07,4.12,2.71,8.44,5.34,12.83,7.83,3.92,2.22,8.3,3.34,13.02,3.34s8.12-1.25,10.93-3.82c2.76-2.52,4.43-7.11,4.96-13.62l.23-2.82h20.64l.23,2.83c.6,7.61.13,15.09-1.39,22.25-1.53,7.19-3.94,13.71-7.16,19.37-3.28,5.81-7.68,10.61-13.05,14.24-5.49,3.71-12,5.6-19.34,5.6Z"/>
        <path class="cls-2" d="M2747,809.46c-24.35,0-46.52-3.93-65.9-11.68-19.41-7.76-36.23-18.97-49.97-33.32-13.74-14.33-24.41-31.74-31.73-51.73-7.28-19.9-10.98-42.35-10.98-66.7s3.7-46.77,10.98-66.68c7.32-20,18-37.33,31.74-51.52,13.75-14.19,30.55-25.32,49.96-33.09,19.36-7.75,41.53-11.68,65.9-11.68s46.59,3.93,66.1,11.67c19.56,7.77,36.44,18.91,50.18,33.09,13.75,14.19,24.42,31.53,31.74,51.52,7.28,19.92,10.98,42.36,10.98,66.68s-3.7,46.78-10.98,66.69c-7.31,19.99-17.98,37.39-31.73,51.74-13.74,14.34-30.63,25.55-50.19,33.33-19.53,7.74-41.77,11.67-66.1,11.67ZM2747,539.87c-15.38,0-29.29,2.51-41.35,7.47-12.01,4.94-22.23,12.02-30.39,21.03-8.19,9.03-14.57,20.23-18.97,33.28-4.43,13.13-6.66,28.07-6.66,44.39s2.24,31.35,6.67,44.63c4.4,13.21,10.79,24.47,18.97,33.49,8.16,9.02,18.38,16.1,30.39,21.03,12.04,4.96,25.95,7.48,41.35,7.48s29.3-2.51,41.34-7.48c12.01-4.94,22.32-12.02,30.63-21.04,8.32-9.03,14.77-20.29,19.16-33.47,4.43-13.26,6.67-28.28,6.67-44.63s-2.24-31.27-6.66-44.39c-4.39-13.03-10.84-24.22-19.17-33.27-8.31-9.01-18.62-16.1-30.63-21.04-12.06-4.96-25.97-7.47-41.34-7.47Z"/>
        <polygon class="cls-2" points="687.52 803.36 687.52 489.57 902.42 489.57 902.42 545.12 747.48 545.12 747.48 610.53 875.05 610.53 875.05 666.07 747.48 666.07 747.48 803.36 687.52 803.36"/>
      </g>
      <path class="cls-2" d="M491.02,2.91S123.32,78.61,123.32,473.35c0,373.11,324.45,486.67,459.63,486.67,0,0-248.09-76.18-322.51-344.78-25.99-93.8-23.55-192.99,2.32-286.83,28.56-103.64,91.43-245.94,228.27-325.5Z"/>
      <path class="cls-1" d="M518.06,267.87S688.39-16.02,1047.99,94.83c0,0-297.41-248.74-600.23,59.48-247.71,252.13-64.83,648.99,163.84,719.98-172-154.62-220.62-382.01-93.55-606.42Z"/>
      <path class="cls-2" d="M1809.68,974.21c-3.68-1.14-37.55-7.51-64.51-10.62-.05-.05-.11-.05-.16-.05-168.11-19.36-248.29-23-498.51,10.68-390.47,52.56-521.72,256.18-884.02,218.33-155.63-16.26-278.92-93.44-335.26-221.7-48.89-111.29-23.9-252.64,12.17-344.24,34.5,347.64,304.22,382.25,312.6,383.23.16.05.22.05.22.05,220.19,53.26,537.45-37.64,774.18-79.6,416.16-73.76,670.31,37.82,683.28,43.93Z"/>
      <g>
        <path class="cls-2" d="M1960.16,903.18h69.35v16.75h-51.14v23.17h42.11v16.76h-42.11v45.31h-18.21v-101.99Z"/>
        <path class="cls-2" d="M2065.21,903.18h47.35c5.44,0,10.37.87,14.79,2.62,4.42,1.75,8.18,4.22,11.29,7.43,3.11,3.21,5.54,7.07,7.29,11.59,1.75,4.52,2.62,9.54,2.62,15.08,0,7.96-1.8,14.84-5.39,20.62-3.59,5.78-8.6,9.98-15,12.6l20.98,32.05h-21.56l-19.09-29.14h-25.06v29.14h-18.21v-101.99ZM2110.81,959.28c5.93,0,10.66-1.77,14.21-5.32,3.54-3.54,5.32-8.38,5.32-14.5s-1.77-10.66-5.32-14.21c-3.55-3.54-8.28-5.32-14.21-5.32h-27.39v39.34h27.39Z"/>
        <path class="cls-2" d="M2184.83,903.18h69.35v16.75h-51.14v23.17h42.11v16.76h-42.11v28.7h51.14v16.75l-69.35-.14v-101.99Z"/>
        <path class="cls-2" d="M2286.24,954.18c0-7.96,1.19-15.2,3.57-21.71,2.38-6.5,5.8-12.07,10.27-16.68,4.47-4.61,9.86-8.18,16.18-10.71,6.31-2.53,13.45-3.79,21.42-3.79,9.13,0,17.12,1.63,23.97,4.88,6.85,3.25,12.6,7.79,17.27,13.62l-14.86,10.2c-3.11-3.79-6.83-6.73-11.15-8.82-4.33-2.09-9.4-3.13-15.23-3.13-5.25,0-9.93.85-14.06,2.54-4.13,1.7-7.6,4.11-10.42,7.21-2.82,3.11-4.98,6.9-6.49,11.36-1.5,4.47-2.26,9.47-2.26,15.01s.75,10.54,2.26,15.01c1.5,4.47,3.66,8.25,6.49,11.36,2.82,3.11,6.29,5.51,10.42,7.21,4.13,1.7,8.81,2.55,14.06,2.55,4.37,0,8.35-.56,11.95-1.68,3.59-1.11,6.75-2.7,9.47-4.73v-17.48h-21.42v-16.76h39.63v40.8c-3.99,4.95-9.31,8.96-15.95,12.02-6.66,3.06-14.55,4.59-23.68,4.59-7.96,0-15.11-1.26-21.42-3.79-6.32-2.53-11.71-6.09-16.18-10.71-4.47-4.61-7.89-10.17-10.27-16.68-2.38-6.51-3.57-13.75-3.57-21.71Z"/>
        <path class="cls-2" d="M2454.96,1007.07c-6.21,0-11.8-.87-16.75-2.62-4.95-1.75-9.18-4.27-12.68-7.58-3.5-3.3-6.19-7.29-8.09-11.95-1.89-4.66-2.84-9.9-2.84-15.73v-66.01h18.21v67.32c0,6.31,1.97,11.2,5.9,14.64,3.93,3.45,9.4,5.17,16.39,5.17s12.89-1.73,16.83-5.17c3.93-3.45,5.9-8.33,5.9-14.64v-67.32h18.21v66.01c0,5.83-.94,11.07-2.84,15.73-1.89,4.66-4.59,8.65-8.09,11.95-3.5,3.31-7.72,5.83-12.68,7.58-4.96,1.75-10.54,2.62-16.75,2.62h-.73Z"/>
        <path class="cls-2" d="M2533.93,903.18h69.35v16.75h-51.14v23.17h42.11v16.76h-42.11v28.7h51.14v16.75l-69.35-.14v-101.99Z"/>
        <path class="cls-2" d="M2711.98,975.59c0,4.37-.73,8.48-2.19,12.31-1.46,3.84-3.66,7.14-6.63,9.91-2.96,2.77-6.7,4.95-11.22,6.56-4.51,1.6-9.88,2.4-16.1,2.4-4.57,0-8.79-.41-12.68-1.23-3.89-.82-7.45-1.94-10.71-3.36-3.25-1.4-6.19-3.01-8.81-4.81-2.62-1.79-4.91-3.62-6.85-5.46l11.51-12.53c3.98,3.4,8.16,6.02,12.53,7.87,4.37,1.85,9.32,2.77,14.86,2.77,3.5,0,6.41-.39,8.74-1.17,2.33-.78,4.2-1.77,5.61-2.98,1.41-1.22,2.38-2.62,2.91-4.22.54-1.61.8-3.18.8-4.74,0-3.01-.8-5.49-2.4-7.43-1.61-1.94-3.74-3.57-6.41-4.88-2.67-1.31-5.71-2.43-9.11-3.35-3.4-.93-6.87-1.87-10.42-2.85-3.54-.97-7.01-2.11-10.41-3.42-3.4-1.31-6.44-2.98-9.11-5.02-2.67-2.04-4.81-4.59-6.41-7.65-1.6-3.06-2.4-6.87-2.4-11.44,0-4.27.78-8.21,2.33-11.8,1.55-3.59,3.81-6.68,6.77-9.25,2.97-2.57,6.65-4.59,11.08-6.05,4.42-1.46,9.49-2.18,15.23-2.18,7.87,0,14.99,1.29,21.34,3.86,6.36,2.57,11.88,5.85,16.54,9.83l-10.64,13.26c-4.66-3.69-9.2-6.31-13.62-7.86-4.42-1.56-8.92-2.33-13.48-2.33-6.12,0-10.54,1.07-13.26,3.21s-4.08,4.76-4.08,7.87c0,2.53.8,4.61,2.41,6.26,1.6,1.65,3.74,3.04,6.41,4.15,2.67,1.12,5.7,2.09,9.1,2.92,3.4.82,6.87,1.74,10.42,2.77,3.54,1.02,7.01,2.24,10.42,3.64,3.4,1.41,6.43,3.26,9.1,5.54,2.67,2.28,4.81,5.13,6.41,8.52,1.61,3.4,2.41,7.53,2.41,12.38Z"/>
        <path class="cls-2" d="M2747.68,903.18h18.21v101.99h-18.21v-101.99Z"/>
        <path class="cls-2" d="M2835.09,903.18h19.09l34.96,101.99h-19.08l-8.45-26.96h-33.95l-8.45,26.96h-19.09l34.97-101.99ZM2856.22,961.46l-11.66-37.01-11.66,37.01h23.32Z"/>
      </g>
    </g>
  </g>
</svg>